<?xml version="1.0" encoding="UTF-8"?>
<svg id="Capa_1" data-name="Capa 1" xmlns="http://www.w3.org/2000/svg" viewBox="0 0 848.11 154.11">
  <defs>
    <style>
      .cls-1, .cls-2 {
        fill: #008539;
      }

      .cls-2 {
        fill-rule: evenodd;
      }
    </style>
  </defs>
  <g>
    <path class="cls-1" d="M508.97,.56h8.09V21.57c0,6.86,2.61,8.62,7.82,8.62s7.82-1.75,7.82-8.62V.56h8.03V22.69c0,9.2-5.27,14.1-15.85,14.1s-15.91-4.84-15.91-14.1V.56Z"/>
    <path class="cls-1" d="M574.03,19.6v16.33h-7.87v-15.11c0-4.26-1.81-5.96-5.05-5.96-4.2,0-6.54,2.66-6.54,8.99v12.08h-7.87V9.33h7.87v5.21c1.7-3.62,4.73-6.06,9.58-6.06,6.97,0,9.9,4.15,9.9,11.12Z"/>
    <path class="cls-1" d="M579.57,.56h8.56V5.82h-8.56V.56Zm.37,8.78h7.87v26.6h-7.87V9.33Z"/>
    <path class="cls-1" d="M621.06,9.33l-9.26,26.6h-11.07l-9.26-26.6h8.03l7.02,20.48,7.02-20.48h7.5Z"/>
    <path class="cls-1" d="M642.66,27.9h7.55c-.74,4.26-4.15,8.89-13.72,8.89-10.37,0-14.31-6.7-14.31-14.2s4.47-14.1,14.31-14.1,13.78,6.54,13.78,14.04c0,.8,0,1.54-.11,2.13h-20.27c.48,5.05,2.98,6.7,6.76,6.7,3.46,0,5.27-1.49,6.01-3.46Zm-12.71-8.03h12.82c-.27-4.04-2.23-6.06-6.17-6.06s-6.01,1.54-6.65,6.06Z"/>
    <path class="cls-1" d="M672.51,8.91v7.66h-2.61c-5.27,0-7.08,2.87-7.08,8.88v10.48h-7.87V9.33h7.66v5.69c1.28-3.78,3.67-6.12,8.14-6.12h1.76Z"/>
    <path class="cls-1" d="M681.82,27.26c.21,2.55,2.13,4.58,6.12,4.58,3.56,0,4.79-1.22,4.79-3.09,0-1.6-.74-2.77-3.72-3.14l-5.96-.75c-5-.64-7.71-3.3-7.71-7.77,0-5.9,5-8.67,12.08-8.67s12.02,2.82,12.5,8.67h-7.29c-.27-2.18-1.92-3.72-5.21-3.72s-4.79,1.28-4.79,2.98c0,1.33,.69,2.39,3.35,2.71l5.59,.64c6.33,.8,8.72,3.51,8.72,8.25,0,5.21-3.3,8.83-12.45,8.83s-13.03-4.47-13.19-9.52h7.18Z"/>
  </g>
  <path class="cls-1" d="M704.75,.56h8.56V5.82h-8.56V.56Zm.37,8.78h7.87v26.6h-7.87V9.33Z"/>
  <path class="cls-1" d="M721.72,26.36V15.29h-4.84v-3.78l5.48-2.23,3.24-6.28h3.99v6.33h7.66v5.96h-7.66v14.36h6.92v6.28h-5c-7.55,0-9.79-3.25-9.79-9.58Z"/>
  <path class="cls-1" d="M740.66,28.86c0-4.25,1.86-7.02,8.72-8.19l6.28-1.07c2.45-.42,3.3-1.12,3.3-2.66,0-1.86-1.06-3.09-4.63-3.09s-5.32,1.44-5.43,4.15h-7.71c.21-5.69,4.89-9.58,12.98-9.58s12.02,3.46,12.02,9.1v11.49c0,2.5,.16,4.63,.43,6.92h-6.86c-.27-1.76-.43-3.51-.43-5.69-1.22,3.67-4.42,6.38-9.84,6.38s-8.83-2.98-8.83-7.77Zm18.3-5.59v-1.17c-1.38,.96-2.71,1.33-4.36,1.7l-2.23,.53c-2.82,.69-3.94,1.7-3.94,3.72,0,2.13,1.6,3.19,3.72,3.19,4.15,0,6.81-3.03,6.81-7.98Z"/>
  <path class="cls-1" d="M773.75,26.36V15.29h-4.84v-3.78l5.48-2.23,3.24-6.28h3.99v6.33h7.66v5.96h-7.66v14.36h6.92v6.28h-5c-7.55,0-9.79-3.25-9.79-9.58Z"/>
  <path class="cls-1" d="M534.19,86.05h-15.85l-2.55,7.24h-8.14l12.45-35.38h12.34l12.45,35.38h-8.14l-2.55-7.24Zm-2.18-6.22l-5.75-16.33-5.74,16.33h11.49Z"/>
  <g>
    <path class="cls-1" d="M575.26,66.68v26.6h-7.87v-5.11c-1.65,3.57-4.63,5.96-9.42,5.96-6.97,0-10.05-4.2-10.05-11.17v-16.28h7.87v15.11c0,4.2,1.86,5.91,5.21,5.91,3.94,0,6.38-2.93,6.38-8.94v-12.08h7.87Z"/>
    <path class="cls-1" d="M584.04,83.71v-11.06h-4.84v-3.78l5.48-2.23,3.24-6.28h3.99v6.33h7.66v5.96h-7.66v14.36h6.92v6.28h-5c-7.55,0-9.79-3.25-9.79-9.58Z"/>
  </g>
  <g>
    <path class="cls-1" d="M602.34,79.93c0-7.34,4.15-14.1,14.74-14.1s14.74,6.81,14.74,14.1-4.1,14.2-14.74,14.2-14.74-6.76-14.74-14.2Zm8.83-22.93l13.46,4.63-.64,2.07-14.36-1.7,1.54-5Zm5.91,30.96c4.84,0,6.86-2.07,6.86-7.98s-2.02-7.98-6.86-7.98-6.81,2.08-6.81,7.98,2.02,7.98,6.81,7.98Z"/>
    <path class="cls-1" d="M663.94,76.95v16.33h-7.87v-15.11c0-4.26-1.81-5.96-5.05-5.96-4.2,0-6.54,2.66-6.54,8.99v12.08h-7.87v-26.6h7.87v5.21c1.7-3.62,4.73-6.06,9.58-6.06,6.97,0,9.9,4.15,9.9,11.12Z"/>
    <path class="cls-1" d="M668.36,79.93c0-7.34,4.15-14.1,14.74-14.1s14.74,6.81,14.74,14.1-4.1,14.2-14.74,14.2-14.74-6.76-14.74-14.2Zm14.74,8.03c4.84,0,6.86-2.07,6.86-7.98s-2.02-7.98-6.86-7.98-6.81,2.08-6.81,7.98,2.02,7.98,6.81,7.98Z"/>
  </g>
  <path class="cls-1" d="M747.52,76.95v16.33h-7.87v-15.21c0-3.99-1.6-5.85-4.79-5.85-3.99,0-6.01,2.66-6.01,8.99v12.08h-7.71v-15.21c0-3.99-1.6-5.85-4.79-5.85-3.99,0-6.01,2.66-6.01,8.99v12.08h-7.87v-26.6h7.87v4.84c1.6-3.4,4.47-5.69,9.1-5.69s7.61,2.23,8.78,6.17c1.6-3.67,4.52-6.17,9.52-6.17,6.76,0,9.79,4.15,9.79,11.12Z"/>
  <path class="cls-1" d="M752.1,86.21c0-4.25,1.86-7.02,8.72-8.19l6.28-1.07c2.45-.42,3.3-1.12,3.3-2.66,0-1.86-1.06-3.09-4.63-3.09s-5.32,1.44-5.43,4.15h-7.71c.21-5.69,4.89-9.58,12.98-9.58s12.02,3.46,12.02,9.1v11.49c0,2.5,.16,4.63,.43,6.92h-6.86c-.27-1.76-.43-3.51-.43-5.69-1.22,3.67-4.42,6.38-9.84,6.38s-8.83-2.98-8.83-7.77Zm18.3-5.59v-1.17c-1.38,.96-2.71,1.33-4.36,1.7l-2.23,.53c-2.82,.69-3.94,1.7-3.94,3.72,0,2.13,1.6,3.19,3.72,3.19,4.15,0,6.81-3.03,6.81-7.98Z"/>
  <path class="cls-1" d="M535.52,113.39v37.24h-7.87v-3.94c-1.86,3.03-4.95,4.79-9.52,4.79-8.67,0-12.24-6.49-12.24-14.2s3.56-14.1,12.24-14.1c4.58,0,7.66,1.81,9.52,4.84v-14.63h7.87Zm-7.87,23.94c0-5.43-2.13-7.98-7.08-7.98s-6.81,2.45-6.81,7.98,1.81,7.98,6.81,7.98,7.08-2.55,7.08-7.98Z"/>
  <path class="cls-1" d="M560.36,142.6h7.55c-.74,4.26-4.15,8.89-13.72,8.89-10.37,0-14.31-6.7-14.31-14.2s4.47-14.1,14.31-14.1,13.78,6.54,13.78,14.04c0,.8,0,1.54-.11,2.13h-20.27c.48,5.05,2.98,6.7,6.76,6.7,3.46,0,5.27-1.49,6.01-3.46Zm-12.71-8.03h12.82c-.27-4.04-2.23-6.06-6.17-6.06s-6.01,1.54-6.65,6.06Z"/>
  <path class="cls-1" d="M616.01,141c0,5.96-3.88,9.63-11.44,9.63h-19.36v-35.38h19.74c7.55,0,10.59,3.94,10.59,8.72,0,5.21-3.24,7.55-7.29,8.4,4.42,.69,7.77,2.98,7.77,8.62Zm-22.72-19.63v8.46h8.99c3.51,0,4.79-1.7,4.79-4.26,0-2.71-1.17-4.2-4.52-4.2h-9.26Zm14.31,18.51c0-2.82-1.44-4.63-5.32-4.63h-8.99v9.2h9.47c3.62,0,4.84-1.97,4.84-4.57Z"/>
  <path class="cls-1" d="M620.75,143.56c0-4.25,1.86-7.02,8.72-8.19l6.28-1.07c2.45-.42,3.3-1.12,3.3-2.66,0-1.86-1.06-3.09-4.63-3.09s-5.32,1.44-5.43,4.15h-7.71c.21-5.69,4.89-9.58,12.98-9.58s12.02,3.46,12.02,9.1v11.49c0,2.5,.16,4.63,.43,6.92h-6.86c-.27-1.76-.43-3.51-.43-5.69-1.22,3.67-4.42,6.38-9.84,6.38s-8.83-2.98-8.83-7.77Zm18.3-5.59v-1.17c-1.38,.96-2.71,1.33-4.36,1.7l-2.23,.53c-2.82,.69-3.94,1.7-3.94,3.72,0,2.13,1.6,3.19,3.72,3.19,4.15,0,6.81-3.03,6.81-7.98Z"/>
  <g>
    <path class="cls-1" d="M670.7,123.61v7.66h-2.61c-5.27,0-7.08,2.87-7.08,8.88v10.48h-7.87v-26.6h7.66v5.69c1.28-3.78,3.67-6.12,8.14-6.12h1.76Z"/>
    <path class="cls-1" d="M687.56,123.18c9.2,0,13.72,5.11,13.94,11.65h-7.66c-.27-3.3-2.08-5.48-6.12-5.48-4.26,0-6.81,2.02-6.81,7.98s2.45,7.98,6.7,7.98,6.06-2.45,6.38-5.64h7.66c-.16,6.22-4.58,11.81-13.94,11.81-10.37,0-14.74-6.7-14.74-14.15s4.26-14.15,14.58-14.15Z"/>
    <path class="cls-1" d="M725.55,142.6h7.55c-.74,4.26-4.15,8.89-13.72,8.89-10.37,0-14.31-6.7-14.31-14.2s4.47-14.1,14.31-14.1,13.78,6.54,13.78,14.04c0,.8,0,1.54-.11,2.13h-20.27c.48,5.05,2.98,6.7,6.76,6.7,3.46,0,5.27-1.49,6.01-3.46Zm-12.71-8.03h12.82c-.27-4.04-2.23-6.06-6.17-6.06s-6.01,1.54-6.65,6.06Z"/>
    <path class="cls-1" d="M737.73,113.39h7.87v37.24h-7.87v-37.24Z"/>
    <path class="cls-1" d="M750.39,137.28c0-7.34,4.15-14.1,14.74-14.1s14.74,6.81,14.74,14.1-4.1,14.2-14.74,14.2-14.74-6.76-14.74-14.2Zm14.74,8.03c4.84,0,6.86-2.07,6.86-7.98s-2.02-7.98-6.86-7.98-6.81,2.08-6.81,7.98,2.02,7.98,6.81,7.98Z"/>
    <path class="cls-1" d="M812,134.3v16.33h-7.87v-15.11c0-4.26-1.81-5.96-5.05-5.96-4.2,0-6.54,2.66-6.54,8.99v12.08h-7.87v-26.6h7.87v5.21c1.7-3.62,4.73-6.06,9.58-6.06,6.97,0,9.9,4.15,9.9,11.12Z"/>
    <path class="cls-1" d="M817.11,143.56c0-4.25,1.86-7.02,8.72-8.19l6.28-1.07c2.45-.42,3.3-1.12,3.3-2.66,0-1.86-1.06-3.09-4.63-3.09s-5.32,1.44-5.43,4.15h-7.71c.21-5.69,4.89-9.58,12.98-9.58s12.02,3.46,12.02,9.1v11.49c0,2.5,.16,4.63,.43,6.92h-6.86c-.27-1.76-.43-3.51-.43-5.69-1.22,3.67-4.42,6.38-9.84,6.38s-8.83-2.98-8.83-7.77Zm18.3-5.59v-1.17c-1.38,.96-2.71,1.33-4.36,1.7l-2.23,.53c-2.82,.69-3.94,1.7-3.94,3.72,0,2.13,1.6,3.19,3.72,3.19,4.15,0,6.81-3.03,6.81-7.98Z"/>
  </g>
  <g>
    <path class="cls-1" d="M3.05,.64H37.35V89.77c0,29.11,11.06,36.55,33.17,36.55s33.17-7.45,33.17-36.55V.64h34.07V94.5c0,39.04-22.34,59.79-67.24,59.79S3.05,133.77,3.05,94.5V.64Z"/>
    <path class="cls-1" d="M459.88,109.85c0,25.27-16.47,40.84-48.51,40.84h-82.13V.64h83.71c32.04,0,44.9,16.7,44.9,37,0,22.11-13.77,32.04-30.91,35.65,18.73,2.93,32.94,12.64,32.94,36.55M363.53,26.59V62.47h38.13c14.89,0,20.31-7.22,20.31-18.05,0-11.51-4.96-17.83-19.18-17.83h-39.26Zm60.69,78.52c0-11.96-6.09-19.63-22.56-19.63h-38.13v39.03h40.16c15.34,0,20.53-8.35,20.53-19.4"/>
    <path class="cls-2" d="M254.88,.63h-45.52l-59.76,150.06h32.32c.48-1.29,1.16-3.11,1.65-4.3,2.74-6.6,6.91-12.12,11.99-16.9,8.32-7.83,18.48-11.16,28.99-12.02,7.12-.58,15.46-.73,22.62-.75h22.04l13.08,33.96h32.34L254.88,.63Zm-10.39,89.8c-.9,0-1.76,0-2.54,.02-17.78,.16-32.39,4.35-46.51,24.94L232.12,24.32l26.62,66.11c-.41,0-14.25,0-14.25,0"/>
  </g>
</svg>